<svg id="Layer_1" data-name="Layer 1" xmlns="http://www.w3.org/2000/svg" viewBox="0 0 42 42"><defs><style>.cls-1{fill:#25d366;fill-rule:evenodd;}</style></defs><title>Artboard 31Obama</title><path class="cls-1" d="M21,1A20,20,0,1,0,41,21,20,20,0,0,0,21,1ZM31.42,28.4c-.44,1.24-2.57,2.38-3.59,2.53a7.29,7.29,0,0,1-3.35-.21,30.52,30.52,0,0,1-3-1.12c-5.33-2.3-8.82-7.67-9.08-8a10.34,10.34,0,0,1-2.17-5.5,6,6,0,0,1,1.86-4.44A2,2,0,0,1,13.47,11l1,0c.33,0,.76-.12,1.2.91s1.51,3.68,1.64,3.95a1,1,0,0,1,0,.93,3.63,3.63,0,0,1-.53.89c-.27.31-.56.69-.8.93s-.54.55-.23,1.09a16,16,0,0,0,3,3.68A14.52,14.52,0,0,0,23,26c.53.27.84.22,1.15-.13s1.33-1.55,1.68-2.08.71-.44,1.2-.27,3.1,1.46,3.63,1.73.89.4,1,.62A4.45,4.45,0,0,1,31.42,28.4Z"/></svg>