<svg id="Layer_1" data-name="Layer 1" xmlns="http://www.w3.org/2000/svg" viewBox="0 0 42 42"><defs><style>.cls-1{fill:#4099ff;}</style></defs><title>Icon</title><path class="cls-1" d="M21,1a19.57,19.57,0,0,1,7.81,1.57A19.94,19.94,0,0,1,39.47,13.19,19.57,19.57,0,0,1,41,21a19.57,19.57,0,0,1-1.57,7.81A19.94,19.94,0,0,1,28.84,39.44,19.56,19.56,0,0,1,21,41a19.56,19.56,0,0,1-7.81-1.57,20.47,20.47,0,0,1-6.38-4.27,19.88,19.88,0,0,1-4.3-6.36A19.57,19.57,0,0,1,1,21a19.57,19.57,0,0,1,1.57-7.81,19.89,19.89,0,0,1,4.3-6.36,20.49,20.49,0,0,1,6.38-4.27A19.57,19.57,0,0,1,21,1ZM31.86,15.24a8.73,8.73,0,0,1-1.14.37q-.57.14-1.2.26a4.41,4.41,0,0,0,1.08-1,5.2,5.2,0,0,0,.74-1.25l-1.28.57a5.62,5.62,0,0,1-1.4.4,3.5,3.5,0,0,0-1.25-1,4,4,0,0,0-4.5.85,4,4,0,0,0-1.2,2.91,4.89,4.89,0,0,0,.11.91,10.87,10.87,0,0,1-4.7-1.25,12,12,0,0,1-3.68-3,4.33,4.33,0,0,0-.51,2.05,3.66,3.66,0,0,0,1.77,3.36A3.61,3.61,0,0,1,12.88,19v.06a4,4,0,0,0,.91,2.59,3.9,3.9,0,0,0,2.28,1.4,3.52,3.52,0,0,1-.48.09,5.36,5.36,0,0,1-.6,0,3.08,3.08,0,0,1-.68-.11,3.81,3.81,0,0,0,1.37,2,4.07,4.07,0,0,0,2.39.85,7.87,7.87,0,0,1-5,1.71h-1a11.47,11.47,0,0,0,6.21,1.82,11.19,11.19,0,0,0,5-1.05A11.28,11.28,0,0,0,29.07,22a12,12,0,0,0,.74-4.1v-.51a8.25,8.25,0,0,0,1.14-1A9.79,9.79,0,0,0,31.86,15.24Z"/></svg>