<svg id="Layer_1" data-name="Layer 1" xmlns="http://www.w3.org/2000/svg" viewBox="0 0 42 42"><defs><style>.cls-1{fill:#3b5998;}</style></defs><title>Icon</title><path class="cls-1" d="M21,41a19.56,19.56,0,0,1-7.81-1.57A19.94,19.94,0,0,1,2.56,28.84,19.57,19.57,0,0,1,1,21a19.57,19.57,0,0,1,1.57-7.81A20.47,20.47,0,0,1,6.84,6.84a19.89,19.89,0,0,1,6.36-4.3A19.57,19.57,0,0,1,21,1a19.58,19.58,0,0,1,7.81,1.57,19.91,19.91,0,0,1,6.36,4.3,20.5,20.5,0,0,1,4.28,6.38A19.59,19.59,0,0,1,41,21a19.58,19.58,0,0,1-1.57,7.81A19.94,19.94,0,0,1,28.81,39.47,19.57,19.57,0,0,1,21,41ZM15.81,21.71h3v9h3.71v-9h3.71V18H22.48V16.13a1.4,1.4,0,0,1,.23-.8.63.63,0,0,1,.51-.34h3V11.34h-3a4.11,4.11,0,0,0-3.13,1.42,4.87,4.87,0,0,0-1.31,3.42V18h-3Z"/></svg>