<svg id="Layer_1" data-name="Layer 1" xmlns="http://www.w3.org/2000/svg" viewBox="0 0 172.491 40.385"><defs><style>.cls-1{fill:#fff;}.cls-2{fill:#f8cb0f;}</style></defs><title>logo-rteplayer</title><path class="cls-1" d="M58.5,10.771a8.357,8.357,0,0,1,3.356.714,8.86,8.86,0,0,1,2.77,1.9,9.126,9.126,0,0,1,1.878,2.8,8.28,8.28,0,0,1,.68,3.406,8.678,8.678,0,0,1-.7,3.393,8.821,8.821,0,0,1-1.866,2.771,8.712,8.712,0,0,1-6.256,2.517,8.949,8.949,0,0,1-4.043-.933l-.03,4.156a2.227,2.227,0,0,1-.7,1.622,2.3,2.3,0,0,1-1.7.671,2.346,2.346,0,0,1-1.6-.641,2.149,2.149,0,0,1-.729-1.579l.092-12.111a8.2,8.2,0,0,1,.732-3.358A9.058,9.058,0,0,1,55.1,11.45,8.289,8.289,0,0,1,58.5,10.771ZM54.383,19.49a4.021,4.021,0,0,0,.316,1.646,3.976,3.976,0,0,0,.876,1.292,4.116,4.116,0,0,0,1.294.858,3.947,3.947,0,0,0,1.534.32,3.817,3.817,0,0,0,1.592-.315,4.056,4.056,0,0,0,1.274-.876,4.116,4.116,0,0,0,.858-1.294,4.045,4.045,0,0,0,.319-1.57,3.862,3.862,0,0,0-.313-1.575,4.182,4.182,0,0,0-.859-1.291,4.059,4.059,0,0,0-4.422-.865,4.187,4.187,0,0,0-1.29.857,3.962,3.962,0,0,0-1.179,2.812Z"/><path class="cls-1" d="M71.232,10.571a2.2,2.2,0,0,1,1.639.7,2.635,2.635,0,0,1,.729,1.705l-.07,9.047a1.734,1.734,0,0,0,.462,1.232,1.546,1.546,0,0,0,1.188.516,2.346,2.346,0,0,1,1.639.663,2.212,2.212,0,0,1,.12,3.164,2.479,2.479,0,0,1-1.543.8l-.5,0a5.522,5.522,0,0,1-2.383-.543,6.693,6.693,0,0,1-1.959-1.4,6.527,6.527,0,0,1-1.323-2.036,6.179,6.179,0,0,1-.47-2.427l.071-9.192a2.578,2.578,0,0,1,.771-1.548A2.333,2.333,0,0,1,71.232,10.571Z"/><path class="cls-1" d="M87.561,10.993a8.446,8.446,0,0,1,3.046.964,8.607,8.607,0,0,1,2.442,1.953A9.125,9.125,0,0,1,94.656,16.6a8.5,8.5,0,0,1,.573,3.169l-.051,6.4a2.207,2.207,0,0,1-.735,1.657,2.3,2.3,0,0,1-1.63.674A2.322,2.322,0,0,1,90.8,27.324a1.821,1.821,0,0,0-.326.163c-.1.056-.193.11-.29.158a9.673,9.673,0,0,1-1.778.6,8.759,8.759,0,0,1-1.99.2,8.367,8.367,0,0,1-4.832-1.5,9.022,9.022,0,0,1-3.152-3.8,9.6,9.6,0,0,1-.549-1.7,8.108,8.108,0,0,1-.185-1.81,7.992,7.992,0,0,1,.214-1.806,9.242,9.242,0,0,1,.574-1.695,8.852,8.852,0,0,1,3.209-3.773,8.424,8.424,0,0,1,4.856-1.407l.525,0A3.428,3.428,0,0,1,87.561,10.993ZM86.413,23.749a4.067,4.067,0,0,0,1.575-.3,3.883,3.883,0,0,0,1.29-.841,4.137,4.137,0,0,0,.879-1.275,3.957,3.957,0,0,0,.336-1.606,3.75,3.75,0,0,0-.313-1.539A4.229,4.229,0,0,0,89.3,16.88a4.272,4.272,0,0,0-1.295-.895,3.824,3.824,0,0,0-1.536-.337,3.662,3.662,0,0,0-1.521.315,4.247,4.247,0,0,0-2.185,2.17,3.784,3.784,0,0,0-.337,1.534,3.678,3.678,0,0,0,.331,1.574,4.22,4.22,0,0,0,.9,1.291,4.395,4.395,0,0,0,1.274.878A3.581,3.581,0,0,0,86.413,23.749Z"/><path class="cls-1" d="M99.35,11.012a2.508,2.508,0,0,1,1.639.626,1.97,1.97,0,0,1,.729,1.594l-.05,6.546a3.971,3.971,0,0,0,.294,1.555,4.018,4.018,0,0,0,.84,1.274,4.157,4.157,0,0,0,1.279.876,3.941,3.941,0,0,0,1.607.338,4.119,4.119,0,0,0,1.5-.277,4.189,4.189,0,0,0,1.308-.787,3.91,3.91,0,0,0,.913-1.2,3.461,3.461,0,0,0,.354-1.533l.05-6.617a2.315,2.315,0,0,1,2.367-2.293,2.465,2.465,0,0,1,1.661.642,2.015,2.015,0,0,1,.712,1.578l-.143,18.585a2.062,2.062,0,0,1-.735,1.584,2.424,2.424,0,0,1-1.669.641,2.372,2.372,0,0,1-1.622-.665,2.178,2.178,0,0,1-.71-1.7l.031-4.158a6.2,6.2,0,0,1-1.9.726,9.962,9.962,0,0,1-2.153.221,8.349,8.349,0,0,1-3.356-.715,9.058,9.058,0,0,1-2.788-1.9,8.771,8.771,0,0,1-1.9-2.854,9.024,9.024,0,0,1-.677-3.6l.048-6.181a2.312,2.312,0,0,1,2.368-2.294Z"/><path class="cls-1" d="M125.257,11.246a7.971,7.971,0,0,1,3.321.749,9.5,9.5,0,0,1,4.7,4.753,7.864,7.864,0,0,1,.7,3.314,2.333,2.333,0,0,1-.717,1.659,2.239,2.239,0,0,1-1.76.673l-9.616-.073a4.1,4.1,0,0,0,4.253,1.622,4.485,4.485,0,0,0,.709-.247,6.212,6.212,0,0,1,.615-.248,2.075,2.075,0,0,1,.705-.1,2.449,2.449,0,0,1,2.141,1.444,2.326,2.326,0,0,1,.172,1.286,2.276,2.276,0,0,1-.641,1.26,5.6,5.6,0,0,1-2.179,1.086,11.331,11.331,0,0,1-2.533.323,7.342,7.342,0,0,1-3.324-.656,9.232,9.232,0,0,1-2.786-1.939,9.058,9.058,0,0,1-1.894-2.854,8.362,8.362,0,0,1-.68-3.366,8.036,8.036,0,0,1,.731-3.286,9.327,9.327,0,0,1,1.92-2.787,9.168,9.168,0,0,1,2.8-1.911A8.011,8.011,0,0,1,125.257,11.246Zm3.241,6.387a4.771,4.771,0,0,0-1.437-1.222,3.825,3.825,0,0,0-1.84-.466,3.75,3.75,0,0,0-1.867.439,4.872,4.872,0,0,0-1.439,1.2Z"/><path class="cls-1" d="M137.41,28.871a2.238,2.238,0,0,1-1.621-.641,2.485,2.485,0,0,1-.709-1.689l.051-6.688a8.163,8.163,0,0,1,.765-3.265,8.754,8.754,0,0,1,1.9-2.66,8.907,8.907,0,0,1,2.761-1.787,9.488,9.488,0,0,1,3.349-.716,2.252,2.252,0,0,1,1.677.7,2.583,2.583,0,0,1,.73,1.668,2.211,2.211,0,0,1-.7,1.64,2.473,2.473,0,0,1-1.7.69,3.943,3.943,0,0,0-2.828,1.138,4.112,4.112,0,0,0-.88,1.279,3.938,3.938,0,0,0-.336,1.6l-.05,6.578a2.352,2.352,0,0,1-.718,1.55A2.3,2.3,0,0,1,137.41,28.871Z"/><path class="cls-1" d="M37.663,26.147a6.27,6.27,0,0,1-6.2-5.45l5.935.046c.651.005,2.079.155,2.079.155l.021-2.625s-1.4.088-2.188.083l-5.827-.045a6.3,6.3,0,0,1,6.279-5.2,12.7,12.7,0,0,1,3.644.777l.057-2.762a11.411,11.411,0,0,0-3.681-.567c-5.216-.04-9.809,3.909-9.848,8.982-.041,5.5,4.492,9.243,9.708,9.283a10.388,10.388,0,0,0,3.922-.624l-.047-2.86A10.27,10.27,0,0,1,37.663,26.147Z"/><path class="cls-1" d="M19.9,28.615a20.379,20.379,0,0,0,.212-2.486l.1-12.6-.855-.006c-1.159-.008-2.963-.023-4.291.1l-.085-2.926,13.845.107-.1,2.923c-1.367-.143-3.126-.157-4.324-.165l-1.054-.009-.1,12.6a16.86,16.86,0,0,0,.214,2.49Z"/><path class="cls-1" d="M41.5,9.425a14.082,14.082,0,0,0-3.466-.507,11.359,11.359,0,0,0-7.863,2.806l.053-2.15A13.539,13.539,0,0,1,38.05,7.352a13.211,13.211,0,0,1,3.5.5Z"/><path class="cls-1" d="M13.716,26.11,8.937,21.446c2.968-.259,5.469-2.419,5.49-5.245.023-3.007-1.684-5.676-6.851-5.93-.213-.01-.434-.025-.671-.027-3.571-.027-6.025.131-6.025.131s.148,1.765.141,2.652l-.1,12.986A15.665,15.665,0,0,1,.67,28.468l3.609.027a16.54,16.54,0,0,1-.211-2.687l.04-5.284L7.469,24.1l1.7,1.783a33.641,33.641,0,0,0,2.88,2.677l4.769.036A34.421,34.421,0,0,1,13.716,26.11ZM6.7,19.31l-2.582-.02.051-6.508s1.255-.023,2.752-.01c.225,0,.437.019.636.028,2.4.222,3.38,1.534,3.367,3.108C10.909,17.675,9.507,19,7.506,19.267A6.3,6.3,0,0,1,6.7,19.31Z"/><path class="cls-1" d="M165.991,9.39a14,14,0,0,0-3.448-.506,11.315,11.315,0,0,0-7.827,2.794l.054-2.139a13.463,13.463,0,0,1,7.786-2.211,13.246,13.246,0,0,1,3.483.5Z"/><path class="cls-2" d="M161.832,10.482a9.219,9.219,0,1,0,9.152,9.29A9.219,9.219,0,0,0,161.832,10.482Zm4.5,11.087c-1.473.85-3.886,2.224-5.361,3.066s-2.673.136-2.66-1.573l.047-6.212c.012-1.7,1.219-2.393,2.683-1.53s3.854,2.28,5.314,3.147S167.806,20.733,166.332,21.569Z"/></svg>