<svg id="Layer_1" data-name="Layer 1" xmlns="http://www.w3.org/2000/svg" viewBox="0 0 172.491 59.698"><defs><style>.cls-1{fill:#fff;}</style></defs><title>RTEie_Year_Tracker2</title><path class="cls-1" d="M64.155,37.975a8.386,8.386,0,0,1-8.344-7.227h7.927c.87,0,2.781.187,2.781.187v-3.51s-1.873.142-2.915.142H55.811a8.425,8.425,0,0,1,8.344-7.015,16.894,16.894,0,0,1,4.869,1l.051-3.692a15.158,15.158,0,0,0-4.921-.722c-6.97,0-13.072,5.324-13.072,12.109,0,7.338,6.1,12.3,13.072,12.3a13.922,13.922,0,0,0,5.236-.875L69.3,36.847a13.707,13.707,0,0,1-5.144,1.128"/><path class="cls-1" d="M40.436,41.446a26.408,26.408,0,0,0,.264-3.317V21.285H39.557c-1.549,0-3.951,0-5.725.173l-.152-3.906H52.175l-.089,3.906c-1.828-.173-4.186-.173-5.783-.173H44.9V38.129a22.612,22.612,0,0,0,.31,3.317Z"/><path class="cls-1" d="M69.109,15.595a18.517,18.517,0,0,0-4.631-.646A15.177,15.177,0,0,0,54,18.777l.046-2.871a18.84,18.84,0,0,1,15.111-2.42Z"/><path class="cls-1" d="M22.714,29.149H19.263V20.458s1.675-.044,3.677-.044c.3,0,.588.025.85.039,3.208.259,4.535,2.006,4.535,4.111,0,2.359-1.865,4.142-4.535,4.524a7.968,7.968,0,0,1-1.077.063m9.437,9.024L25.729,31.98c3.954-.381,7.279-3.29,7.279-7.06,0-4.014-2.318-7.569-9.218-7.85-.284-.014-.585-.024-.9-.024-4.773,0-8.051.225-8.051.225s.22,2.354.22,3.547V38.173a20.612,20.612,0,0,1-.314,3.273h4.824a22.263,22.263,0,0,1-.309-3.59V30.8l4.528,4.74,2.292,2.369a44.692,44.692,0,0,0,3.875,3.541h6.37a47.19,47.19,0,0,1-4.177-3.273"/><path class="cls-1" d="M83.92,32.634c.187,4.748,3.375,7.37,7.747,7.37,3.953,0,6.421-1.747,6.421-4.712,0-2.43-1.442-3.722-4.9-4.406l-4.863-.952c-3.419-.682-5.776-2.505-5.776-6.118,0-3.951,3.155-6.8,8.207-6.8,5.813,0,9.272,3.189,9.272,8.585L97.82,25.8c-.074-4.37-2.656-6.914-7.027-6.914-3.8,0-5.93,1.861-5.93,4.862,0,2.7,1.713,3.572,4.865,4.179l4.257.835c4.213.834,6.38,2.547,6.38,6.345,0,4.214-3.644,6.761-8.7,6.761-5.7,0-9.912-3.229-9.912-9.041Z"/><path class="cls-1" d="M105.5,33.737c0,3.948,2.588,6.228,5.852,6.228,3.5,0,5.509-2.622,5.509-6.8s-2.013-6.8-5.509-6.8c-3.264,0-5.852,2.279-5.852,6.23Zm.079,14.131h-2.32V24.923h2.32v3.645a6.3,6.3,0,0,1,6.077-4.1c4.9,0,7.636,3.839,7.636,8.7s-2.737,8.7-7.636,8.7a6.269,6.269,0,0,1-6.077-4.064Z"/><path class="cls-1" d="M129.209,40.042c3.725,0,5.852-2.848,5.852-6.878s-2.127-6.876-5.852-6.876c-3.681,0-5.811,2.85-5.811,6.876s2.13,6.878,5.811,6.878m0,1.822c-4.67,0-8.241-3.57-8.241-8.7s3.571-8.7,8.241-8.7c4.715,0,8.282,3.573,8.282,8.7s-3.567,8.7-8.282,8.7"/><path class="cls-1" d="M149.314,27.238a4.708,4.708,0,0,0-2.508-.645c-2.391,0-4.33,2.468-4.33,5.775V41.41H140.16V24.923h2.316v3.454c.646-1.9,2.319-3.914,4.75-3.914a3.325,3.325,0,0,1,2.353.761Z"/><path class="cls-1" d="M152.2,26.63h-2.544V25.491l.988-.19c1.524-.3,1.823-1.024,2.165-2.622l.5-2.354h1.176v4.6h4.788V26.63h-4.788V37.8c0,1.482.611,2.2,2.13,2.2a6.636,6.636,0,0,0,3.229-1.138V40.5a6.1,6.1,0,0,1-4.028,1.365c-2.2,0-3.611-1.1-3.611-4.1Z"/></svg>