<svg xmlns="http://www.w3.org/2000/svg" xmlns:xlink="http://www.w3.org/1999/xlink" viewBox="0 0 172.491 33.873"><defs><style>.cls-1{isolation:isolate;}.cls-2{fill:#fff;}.cls-10,.cls-11,.cls-12,.cls-3,.cls-4,.cls-5,.cls-6,.cls-7,.cls-8,.cls-9{opacity:0.65;}.cls-3{fill:url(#New_Gradient_Swatch_11);}.cls-4{fill:url(#New_Gradient_Swatch_1);}.cls-5{fill:url(#New_Gradient_Swatch_10);}.cls-6{fill:url(#New_Gradient_Swatch_8);}.cls-7{fill:url(#New_Gradient_Swatch_6);}.cls-8{fill:url(#New_Gradient_Swatch_5);}.cls-9{fill:url(#New_Gradient_Swatch_9);}.cls-10{fill:url(#New_Gradient_Swatch_4);}.cls-11{fill:url(#New_Gradient_Swatch_3);}.cls-12{fill:url(#New_Gradient_Swatch_2);}.cls-13{fill:none;}.cls-14{fill:#f1f1f1;}.cls-15{fill:#f6e400;}.cls-16{fill:#b9ab00;}.cls-17,.cls-18{fill:#0da453;}.cls-18{opacity:0.68;mix-blend-mode:multiply;}.cls-19{fill:#62cae6;}.cls-20{fill:#4a98ad;}.cls-21{fill:#f5af1a;}.cls-22{fill:#b88314;}.cls-23{fill:#bdd86e;}.cls-24{fill:#8ea253;}.cls-25{fill:#0d8768;}.cls-26{fill:#0a654e;}.cls-27{fill:#971a41;}.cls-28{fill:#711431;}.cls-29{fill:#434a9b;}.cls-30{fill:#323874;}.cls-31{fill:#ee3c48;}.cls-32{fill:#b32d36;}.cls-33{fill:#772e88;}.cls-34{fill:#592366;}</style><linearGradient id="New_Gradient_Swatch_11" x1="18.542" y1="18.166" x2="26.756" y2="10.77" gradientUnits="userSpaceOnUse"><stop offset="0" stop-color="#fff" stop-opacity="0"/><stop offset="1" stop-color="#f6b119"/></linearGradient><linearGradient id="New_Gradient_Swatch_1" x1="16.991" y1="16.931" x2="21.275" y2="6.838" gradientUnits="userSpaceOnUse"><stop offset="0" stop-color="#fff" stop-opacity="0"/><stop offset="1" stop-color="#971a41"/></linearGradient><linearGradient id="New_Gradient_Swatch_10" x1="17.79" y1="17.395" x2="28.874" y2="17.395" gradientUnits="userSpaceOnUse"><stop offset="0" stop-color="#fff" stop-opacity="0"/><stop offset="1" stop-color="#f6e400"/></linearGradient><linearGradient id="New_Gradient_Swatch_8" x1="14.064" y1="17.775" x2="15.217" y2="28.752" gradientUnits="userSpaceOnUse"><stop offset="0" stop-color="#fff" stop-opacity="0"/><stop offset="1" stop-color="#009e83"/></linearGradient><linearGradient id="New_Gradient_Swatch_6" x1="15.132" y1="19.493" x2="21.94" y2="28.206" gradientUnits="userSpaceOnUse"><stop offset="0" stop-color="#fff" stop-opacity="0"/><stop offset="1" stop-color="#0da453"/></linearGradient><linearGradient id="New_Gradient_Swatch_5" x1="17.698" y1="21.831" x2="7.233" y2="21.831" gradientUnits="userSpaceOnUse"><stop offset="0" stop-color="#fff" stop-opacity="0"/><stop offset="1" stop-color="#62cae6"/></linearGradient><linearGradient id="New_Gradient_Swatch_9" x1="18.439" y1="16.769" x2="26.747" y2="23.991" gradientUnits="userSpaceOnUse"><stop offset="0" stop-color="#fff" stop-opacity="0"/><stop offset="1" stop-color="#bdd86e"/></linearGradient><linearGradient id="New_Gradient_Swatch_4" x1="17.569" y1="16.469" x2="6.665" y2="17.423" gradientUnits="userSpaceOnUse"><stop offset="0" stop-color="#fff" stop-opacity="0"/><stop offset="1" stop-color="#2b337a"/></linearGradient><linearGradient id="New_Gradient_Swatch_3" x1="17.758" y1="12.882" x2="7.249" y2="12.882" gradientUnits="userSpaceOnUse"><stop offset="0" stop-color="#fff" stop-opacity="0"/><stop offset="1" stop-color="#772e88"/></linearGradient><linearGradient id="New_Gradient_Swatch_2" x1="16.722" y1="17.534" x2="14.435" y2="6.772" gradientUnits="userSpaceOnUse"><stop offset="0" stop-color="#fff" stop-opacity="0"/><stop offset="1" stop-color="#ee3c48"/></linearGradient></defs><title>logo-election2016</title><g class="cls-1"><g id="Layer_1" data-name="Layer 1"><path class="cls-2" d="M35.9,8.876h6.312v1.949H38.221v5.244h3.76v1.949h-3.76V23.68h3.992V25.63H35.9Z"/><path class="cls-2" d="M44.95,8.876h2.321v14.8h3.9V25.63H44.95Z"/><path class="cls-2" d="M54,8.876h6.312v1.949H56.319v5.244h3.76v1.949h-3.76V23.68h3.992V25.63H54Z"/><path class="cls-2" d="M62.792,13.145c0-2.344.766-4.408,3.922-4.408,2.3,0,3.365,1.16,3.365,3.04v1.671H67.9V12.287c0-1.067-.371-1.74-1.346-1.74-1.207,0-1.439.858-1.439,2.877v8.214c0,1.973.627,2.321,1.369,2.321.858,0,1.415-.6,1.415-2V20.8h2.181v1.857c0,1.763-.719,3.11-3.411,3.11-2.924,0-3.876-1.555-3.876-4.154Z"/><path class="cls-2" d="M72.236,8.876h7.89v1.949H77.341v14.8h-2.32v-14.8H72.236Z"/><path class="cls-2" d="M82.794,8.876h2.32V25.63h-2.32Z"/><path class="cls-2" d="M88.432,13.145c0-2.344.766-4.408,3.922-4.408,2.993,0,3.945,1.554,3.945,4.153v8.471c0,2.343-.765,4.408-3.945,4.408-2.97,0-3.922-1.555-3.922-4.154Zm2.32,8.609c0,1.439.65,2.2,1.6,2.2.974,0,1.623-.766,1.623-2.2V12.96c0-1.648-.556-2.413-1.623-2.413-1.045,0-1.6.766-1.6,2.413Z"/><path class="cls-2" d="M99.686,8.876h3.2L105.626,22.8h.047V8.876h2.181V25.63h-3.341l-2.738-14.295h-.047V25.63H99.686Z"/><ellipse class="cls-2" cx="17.824" cy="17.371" rx="9.774" ry="9.77"/><path class="cls-3" d="M17.79,17.33l10.526-3.418a11.082,11.082,0,0,0-4-5.492L17.79,17.27Z"/><path class="cls-4" d="M24.307,8.435A11.1,11.1,0,0,0,17.79,6.311V17.27Z"/><path class="cls-5" d="M17.79,17.357l.063.086,10.463,3.435a11.133,11.133,0,0,0,0-6.966L17.79,17.33Z"/><path class="cls-6" d="M17.7,17.393l-6.5,8.894a11.025,11.025,0,0,0,6.619,2.192L17.79,17.423Z"/><path class="cls-7" d="M17.793,17.414l.024,11.058a11.011,11.011,0,0,0,6.5-2.125l-6.466-8.912Z"/><path class="cls-8" d="M17.649,17.376,7.233,20.783a11.073,11.073,0,0,0,3.935,5.5l6.53-8.893Z"/><path class="cls-9" d="M28.315,20.878,17.853,17.443l6.464,8.912A11.058,11.058,0,0,0,28.315,20.878Z"/><path class="cls-10" d="M7.248,13.962a11.128,11.128,0,0,0-.015,6.821l10.415-3.407Z"/><path class="cls-11" d="M17.731,17.35l.026-.037L11.326,8.389a11.156,11.156,0,0,0-4.077,5.57l10.4,3.418Z"/><path class="cls-12" d="M17.79,17.27V6.311a10.986,10.986,0,0,0-6.465,2.077l6.433,8.926Z"/><path class="cls-13" d="M17.814,7.622a9.774,9.774,0,0,0,0,19.547h0a9.777,9.777,0,0,0,9.275-12.858,9.829,9.829,0,0,0-3.55-4.833,9.728,9.728,0,0,0-5.725-1.857Z"/><polygon class="cls-14" points="17.915 17.222 17.872 17.236 17.841 17.279 17.931 17.309 17.931 17.243 17.915 17.222"/><polygon class="cls-14" points="17.931 17.309 17.993 17.329 17.931 17.243 17.931 17.309"/><polygon class="cls-14" points="17.898 17.199 17.872 17.236 17.915 17.222 17.898 17.199"/><polygon class="cls-14" points="17.79 17.263 17.841 17.279 17.872 17.236 17.79 17.263"/><polygon class="cls-14" points="17.931 17.243 17.931 17.217 17.915 17.222 17.931 17.243"/><polygon class="cls-14" points="17.931 17.217 17.931 17.156 17.898 17.199 17.915 17.222 17.931 17.217"/><polygon class="cls-13" points="24.324 26.366 23.11 24.675 23.109 24.676 24.324 26.366"/><path class="cls-13" d="M17.776,26.4l-.179,0Z"/><path class="cls-13" d="M26.336,20.316c-.082.239-.173.475-.276.7A6.352,6.352,0,0,0,26.336,20.316Z"/><polygon class="cls-13" points="7.255 20.776 9.23 20.134 9.23 20.134 7.255 20.776"/><polygon class="cls-13" points="26.366 14.55 28.338 13.905 26.364 14.545 26.366 14.55"/><path class="cls-13" d="M28.338,20.882l-1.956-.649a2.011,2.011,0,0,0,.064-.256c-.025.084-.051.168-.079.251Z"/><polygon class="cls-13" points="17.79 6.31 17.789 6.599 17.79 6.317 17.79 6.31"/><path class="cls-13" d="M17.545,26.391a9.066,9.066,0,0,1-1.266-.126A8.437,8.437,0,0,0,17.545,26.391Z"/><path class="cls-15" d="M29.587,13.5l-1.25.407-1.971.645a9.055,9.055,0,0,1,.079,5.427,2.011,2.011,0,0,1-.064.256l1.956.649,1.25.41a12.519,12.519,0,0,0,0-7.794Z"/><path class="cls-16" d="M29.587,13.5s-2.05,4.6-3.205,6.735l1.956.649,1.25.41a12.519,12.519,0,0,0,0-7.794Z"/><path class="cls-17" d="M23.109,24.676a9,9,0,0,1-5.3,1.719l.005,3.4a12.305,12.305,0,0,0,7.281-2.36l-.771-1.065Z"/><polygon class="cls-18" points="17.813 26.396 17.817 26.397 17.819 26.396 17.813 26.396"/><path class="cls-18" d="M17.809,26.4v3.4a12.3,12.3,0,0,0,7.28-2.36S21.516,26.871,17.809,26.4Z"/><path class="cls-19" d="M12.426,24.609a9.018,9.018,0,0,1-3.2-4.475l-1.975.642-1.25.407a12.328,12.328,0,0,0,3.044,4.978,12.5,12.5,0,0,0,1.369,1.185l.777-1.059Z"/><path class="cls-20" d="M9.23,20.134l-1.975.642-1.25.407a12.328,12.328,0,0,0,3.044,4.978,12.5,12.5,0,0,0,1.369,1.185S9.483,22.245,9.23,20.134Z"/><path class="cls-21" d="M24.317,8.424,23.091,10.09a9.025,9.025,0,0,1,3.273,4.455l1.974-.64,1.25-.407a12.329,12.329,0,0,0-3.008-4.867A12.538,12.538,0,0,0,25.093,7.36v.006Z"/><path class="cls-22" d="M26.364,14.545l1.974-.64,1.25-.407a12.329,12.329,0,0,0-3.008-4.867A12.538,12.538,0,0,0,25.093,7.36v.006S26.061,12.325,26.364,14.545Z"/><path class="cls-23" d="M26.366,20.228c-.009.029-.019.059-.03.089a6.352,6.352,0,0,1-.276.7,9.04,9.04,0,0,1-2.951,3.655l1.214,1.691.771,1.065a12.571,12.571,0,0,0,1.484-1.27,12.344,12.344,0,0,0,3.009-4.869l-1.25-.41Z"/><path class="cls-24" d="M23.11,24.675l1.214,1.691.771,1.065a12.571,12.571,0,0,0,1.484-1.27,12.344,12.344,0,0,0,3.009-4.869S25.3,23.569,23.11,24.675Z"/><path class="cls-25" d="M17.813,26.4a9.262,9.262,0,0,1-5.388-1.787L11.2,26.287l-.777,1.059a12.3,12.3,0,0,0,7.4,2.445V26.4Z"/><path class="cls-26" d="M12.426,24.609,11.2,26.287l-.777,1.059a12.3,12.3,0,0,0,7.4,2.445S13.993,26.391,12.426,24.609Z"/><path class="cls-27" d="M17.79,6.317V6.6l-.006,1.784h.03a8.971,8.971,0,0,1,5.276,1.705l1.228-1.671.774-1.054A12.382,12.382,0,0,0,17.79,5V6.317Z"/><path class="cls-28" d="M17.79,5s3.437,3.072,5.3,5.089l1.228-1.671.774-1.054A12.382,12.382,0,0,0,17.79,5Z"/><polygon class="cls-27" points="23.089 10.089 23.091 10.09 24.317 8.424 25.093 7.366 25.092 7.364 24.317 8.418 23.089 10.089"/><path class="cls-29" d="M9.23,20.134a9.042,9.042,0,0,1,.007-5.514l-1.966-.655-1.249-.41a12.51,12.51,0,0,0-.017,7.627l1.25-.407Z"/><path class="cls-30" d="M9.237,14.62l-1.966-.655-1.249-.41a12.51,12.51,0,0,0-.017,7.627S8.926,15.546,9.237,14.62Z"/><path class="cls-31" d="M12.549,10.08a8.995,8.995,0,0,1,5.241-1.7V5a12.237,12.237,0,0,0-7.224,2.337L11.335,8.4Z"/><path class="cls-32" d="M17.79,8.382l0-3.382a12.241,12.241,0,0,0-7.224,2.337S15.121,7.805,17.79,8.382Z"/><path class="cls-33" d="M9.237,14.62a9.03,9.03,0,0,1,3.311-4.54L11.332,8.4l-.766-1.063A12.477,12.477,0,0,0,9.049,8.631a12.33,12.33,0,0,0-3.027,4.925l1.249.41Z"/><path class="cls-34" d="M12.549,10.08,11.332,8.4l-.766-1.063A12.477,12.477,0,0,0,9.049,8.631a12.33,12.33,0,0,0-3.027,4.925S10.3,11.1,12.549,10.08Z"/><polygon class="cls-33" points="7.271 13.966 9.237 14.62 9.237 14.62 7.271 13.966"/><polygon class="cls-33" points="12.549 10.08 12.549 10.08 11.335 8.4 10.566 7.337 11.332 8.4 12.549 10.08"/><path class="cls-2" d="M26.336,20.316c.011-.029.021-.059.03-.089h0C26.356,20.257,26.346,20.286,26.336,20.316Z"/><path class="cls-2" d="M17.776,26.4h0Z"/><polygon class="cls-2" points="23.014 10.193 23.091 10.09 23.089 10.089 23.013 10.193 23.014 10.193"/><polygon class="cls-2" points="9.429 14.684 9.237 14.62 9.237 14.62 9.429 14.684 9.429 14.684"/><polygon class="cls-2" points="12.549 10.08 12.549 10.08 12.642 10.209 12.549 10.08"/><path class="cls-2" d="M114.528,22.838l5.485-4.524c2.048-1.706,2.848-2.605,2.844-3.974a2.026,2.026,0,0,0-2.225-2.141c-1.274,0-2.146.714-3.368,2.229l-2.555-2.046c1.622-2.221,3.2-3.424,6.149-3.433,3.422-.011,5.694,1.981,5.7,5.072v.047c.009,2.761-1.4,4.135-4.323,6.409l-2.684,2.085,7.2-.022.009,3.139-12.225.037Z"/><path class="cls-2" d="M128.386,17.462v-.047c-.014-4.791,2.947-8.545,7.337-8.559,4.366-.013,7.327,3.676,7.342,8.467v.047c.014,4.791-2.924,8.552-7.337,8.566S128.4,22.253,128.386,17.462Zm10.951-.033v-.047c-.01-3-1.48-5.259-3.65-5.252s-3.581,2.206-3.572,5.227V17.4c.01,3.021,1.456,5.258,3.65,5.251S139.346,20.426,139.337,17.428Z"/><path class="cls-2" d="M147.463,12.66l-2.877.717-.764-2.971,4.739-1.423,2.478-.007.051,16.63-3.587.011Z"/><path class="cls-2" d="M156.017,24.1c-1.208-1.2-1.968-2.967-1.978-6.248v-.047c-.015-5.1,2.285-9.015,7.218-9.03a7.676,7.676,0,0,1,5.174,1.794l-1.9,2.814a5.088,5.088,0,0,0-3.379-1.312c-2.478.007-3.2,2.393-3.316,3.833a5.787,5.787,0,0,1,3.419-1.072c3.281-.01,5.811,1.8,5.822,5.245v.047c.011,3.375-2.7,5.72-6.283,5.731A6.265,6.265,0,0,1,156.017,24.1Zm7.446-3.8v-.047c0-1.393-1.093-2.4-2.887-2.4s-2.829,1-2.824,2.392V20.3c0,1.393,1.093,2.451,2.886,2.446S163.467,21.721,163.463,20.3Z"/></g></g></svg>