<svg id="Layer_1" data-name="Layer 1" xmlns="http://www.w3.org/2000/svg" viewBox="0 0 74.708 46.302"><defs><style>.cls-1{fill:#fff;}</style></defs><title>Logo</title><path class="cls-1" d="M58.736,31.278a8.386,8.386,0,0,1-8.344-7.227H58.32c.87,0,2.781.187,2.781.187v-3.51s-1.873.142-2.915.142H50.392a8.425,8.425,0,0,1,8.344-7.015,16.894,16.894,0,0,1,4.869,1l.051-3.692a15.158,15.158,0,0,0-4.921-.722c-6.97,0-13.072,5.324-13.072,12.109,0,7.338,6.1,12.3,13.072,12.3a13.922,13.922,0,0,0,5.236-.875L63.88,30.15a13.707,13.707,0,0,1-5.144,1.128"/><path class="cls-1" d="M35.017,34.748a26.408,26.408,0,0,0,.264-3.317V14.588H34.139c-1.549,0-3.951,0-5.725.173l-.152-3.906H46.756l-.089,3.906c-1.828-.173-4.186-.173-5.783-.173h-1.4V31.432a22.612,22.612,0,0,0,.31,3.317Z"/><path class="cls-1" d="M63.69,8.9a18.517,18.517,0,0,0-4.631-.646,15.177,15.177,0,0,0-10.48,3.829l.046-2.871a18.84,18.84,0,0,1,15.111-2.42Z"/><path class="cls-1" d="M17.3,22.452H13.845V13.76s1.675-.044,3.677-.044c.3,0,.588.025.85.039,3.208.259,4.535,2.006,4.535,4.111,0,2.359-1.865,4.142-4.535,4.524a7.968,7.968,0,0,1-1.077.063m9.437,9.024L20.31,25.283c3.954-.381,7.279-3.29,7.279-7.06,0-4.014-2.318-7.569-9.218-7.85-.284-.014-.585-.024-.9-.024-4.773,0-8.051.225-8.051.225s.22,2.354.22,3.547V31.476a20.612,20.612,0,0,1-.314,3.273h4.824a22.263,22.263,0,0,1-.309-3.59V24.1l4.528,4.74,2.292,2.369a44.692,44.692,0,0,0,3.875,3.541h6.37a47.19,47.19,0,0,1-4.177-3.273"/></svg>