<svg id="Layer_1" data-name="Layer 1" xmlns="http://www.w3.org/2000/svg" viewBox="0 0 172.491 59.698"><defs><style>.cls-1{fill:#f5f5f5;}.cls-2{fill:#1176dd;}.cls-3{fill:#333332;}</style></defs><title>logo-rtenews</title><rect class="cls-1" x="6.215" y="7.656" width="159.687" height="43.594"/><rect class="cls-2" x="6.215" y="45.841" width="159.687" height="5.409"/><path class="cls-3" d="M66.422,36.286a7.956,7.956,0,0,1-7.914-6.852h7.517c.83,0,2.64.177,2.64.177V26.28s-1.775.133-2.766.133H58.508a7.99,7.99,0,0,1,7.914-6.653,16.06,16.06,0,0,1,4.621.948l.045-3.5a14.377,14.377,0,0,0-4.666-.684c-6.615,0-12.4,5.049-12.4,11.483,0,6.962,5.784,11.665,12.4,11.665a13.13,13.13,0,0,0,4.963-.834L71.3,35.216a12.984,12.984,0,0,1-4.876,1.07"/><path class="cls-3" d="M43.925,39.577a24.972,24.972,0,0,0,.252-3.15V20.456H43.095c-1.47,0-3.751,0-5.432.165l-.143-3.709H55.061l-.086,3.709c-1.733-.165-3.969-.165-5.484-.165H48.16V36.428a21.571,21.571,0,0,0,.293,3.15Z"/><path class="cls-3" d="M71.121,15.061a17.355,17.355,0,0,0-4.393-.614,14.414,14.414,0,0,0-9.941,3.63l.043-2.722a17.156,17.156,0,0,1,9.9-2.894,16.965,16.965,0,0,1,4.436.6Z"/><path class="cls-3" d="M27.114,27.916H23.846V19.674s1.59-.044,3.488-.044c.284,0,.556.019.8.035,3.044.248,4.3,1.9,4.3,3.9,0,2.233-1.77,3.929-4.3,4.287a7.331,7.331,0,0,1-1.024.063m8.954,8.558L29.977,30.6c3.748-.36,6.9-3.12,6.9-6.695,0-3.807-2.2-7.18-8.739-7.448-.269-.016-.553-.023-.848-.023-4.531,0-7.637.217-7.637.217s.207,2.234.207,3.361V36.475a19.546,19.546,0,0,1-.3,3.1h4.574a21.09,21.09,0,0,1-.293-3.4v-6.7l4.293,4.493,2.173,2.249a43.158,43.158,0,0,0,3.676,3.358h6.044a44.985,44.985,0,0,1-3.964-3.1"/><path class="cls-3" d="M96.855,35.383V16.729h2.158V39.373h-1.8L83.124,19.856V39.373H80.969V16.729h2.516Z"/><path class="cls-3" d="M117.522,34.052a6.869,6.869,0,0,1-7.154,5.751,7.634,7.634,0,0,1-7.908-8.015c0-4.925,3.344-8.447,7.765-8.447,4.888,0,7.333,3.522,7.333,7.763v1.007H104.726c.143,3.451,2.551,5.895,5.642,5.895a4.944,4.944,0,0,0,5.284-4.206Zm-2.3-3.486c-.072-2.876-1.689-5.5-5-5.5-3.091,0-5.1,2.588-5.463,5.5Z"/><path class="cls-3" d="M134.45,36.425h.144l3.846-12.653h2.085l-4.96,15.6H133.48l-3.631-12.437h-.143l-3.6,12.437h-2.084l-5-15.6h2.192l3.918,12.653h.144l3.595-12.653h1.906Z"/><path class="cls-3" d="M143.686,33.873c.323,2.7,2.156,4.205,5.141,4.205,2.409,0,4.1-.9,4.1-2.732,0-1.724-1.224-2.264-3.417-2.659l-2.695-.468c-2.732-.468-4.421-1.725-4.421-4.241,0-2.8,2.336-4.637,5.75-4.637,4.026,0,6.363,1.906,6.614,5.607l-1.69.144c-.394-2.8-2.047-4.026-4.924-4.026-2.227,0-3.7,1.007-3.7,2.66,0,1.509.9,2.264,2.84,2.587l2.873.468c3.056.5,4.854,1.581,4.854,4.35,0,3.056-2.732,4.672-6.147,4.672-3.773,0-6.686-1.868-6.937-5.714Z"/></svg>